# xmcd CD database file
#
# Track frame offsets:
#	150
#	16335
#	36037
#	53882
#	73549
#	97334
#	118400
#	137434
#	153427
#	170862
#
# Disc length: 2528 seconds
#
# Revision: 4
# Processed by: cddbd v1.4PL0 Copyright (c) Steve Scherf et al.
# Submitted via: CDex 1.40Release
#
DISCID=8d09de0a
DTITLE=_S___q_P - - S_____D
DYEAR=2002
DGENRE=Rock
TTITLE0=___y 01
TTITLE1=___y 02
TTITLE2=___y 03
TTITLE3=___y 04
TTITLE4=___y 05
TTITLE5=___y 06
TTITLE6=___y 07
TTITLE7=___y 08
TTITLE8=___y 09
TTITLE9=___y 10
EXTD=YEAR: 2002 ID3G: 17
EXTT0=
EXTT1=
EXTT2=
EXTT3=
EXTT4=
EXTT5=
EXTT6=
EXTT7=
EXTT8=
EXTT9=
PLAYORDER=
